<?xml version="1.0" standalone="no"?>
<!DOCTYPE svg PUBLIC "-//W3C//DTD SVG 20010904//EN"
 "http://www.w3.org/TR/2001/REC-SVG-20010904/DTD/svg10.dtd">
<svg version="1.0" xmlns="http://www.w3.org/2000/svg"
 width="256.000000pt" height="256.000000pt" viewBox="0 0 256.000000 256.000000"
 preserveAspectRatio="xMidYMid meet">
<metadata>
Created by potrace 1.11, written by Peter Selinger 2001-2013
</metadata>
<g transform="translate(0.000000,256.000000) scale(0.100000,-0.100000)"
fill="#000000" stroke="none">
<path d="M1462 2418 c-7 -7 -12 -8 -12 -3 0 4 -9 -2 -20 -15 -11 -13 -20 -20
-20 -17 0 4 -12 2 -27 -4 -16 -6 -41 -12 -58 -14 -16 -2 -45 -8 -62 -13 -18
-6 -33 -8 -33 -4 0 4 -5 0 -10 -8 -5 -8 -10 -10 -10 -4 0 16 -105 17 -122 1
-7 -7 -17 -14 -23 -15 -10 -2 -75 -53 -107 -84 -10 -10 -18 -15 -18 -10 0 4
-5 0 -10 -9 -6 -10 -39 -24 -84 -33 -41 -10 -80 -24 -86 -32 -7 -7 -18 -14
-26 -14 -7 0 -17 -6 -21 -13 -9 -15 -73 -61 -73 -53 0 3 -9 -2 -20 -12 -12 -9
-22 -15 -24 -12 -1 3 -10 -3 -20 -12 -9 -9 -23 -15 -30 -12 -8 3 -17 0 -21 -5
-3 -6 -10 -9 -15 -6 -5 3 -11 1 -15 -5 -3 -5 -15 -10 -26 -10 -10 0 -19 -4
-19 -9 0 -5 -8 -12 -18 -15 -35 -11 -176 -161 -166 -177 3 -5 0 -9 -5 -9 -15
0 -14 -67 1 -76 7 -5 8 -3 3 6 -5 8 -4 11 3 6 6 -4 9 -13 6 -20 -3 -8 36 -54
94 -113 84 -84 99 -103 97 -128 -1 -23 6 -35 29 -52 16 -13 34 -23 38 -23 14
0 77 -61 83 -80 3 -9 22 -26 43 -38 40 -23 74 -57 65 -66 -4 -3 0 -6 7 -6 7 0
11 -3 7 -6 -8 -9 69 -98 105 -121 15 -9 53 -63 54 -78 4 -40 64 -112 84 -100
4 3 13 -2 20 -10 7 -8 19 -15 27 -15 18 0 64 -46 55 -54 -3 -4 1 -4 11 0 12 4
17 1 17 -10 0 -9 8 -16 20 -16 11 0 20 -7 20 -16 0 -8 4 -12 10 -9 5 3 22 -2
37 -12 31 -19 109 -93 99 -93 -4 0 -1 -6 6 -14 7 -8 18 -11 23 -8 6 3 3 -3 -5
-13 -9 -11 -10 -16 -2 -11 8 5 12 0 12 -13 0 -12 5 -21 11 -21 5 0 7 -5 4 -10
-3 -6 1 -13 9 -16 9 -3 13 -10 10 -15 -3 -5 2 -6 10 -3 9 3 16 1 16 -6 0 -6 4
-9 9 -5 5 3 17 -2 25 -11 9 -8 16 -12 16 -7 0 4 12 -5 26 -21 22 -23 24 -30
13 -38 -10 -7 -8 -8 7 -3 18 5 55 -20 47 -32 -8 -10 0 -20 28 -30 17 -7 28
-17 24 -22 -3 -6 -1 -11 6 -11 12 0 35 -23 78 -80 30 -40 110 -119 123 -121 4
-1 13 -2 18 -3 6 0 15 -8 20 -16 5 -8 10 -10 10 -3 0 6 8 9 19 6 29 -7 85 49
76 78 -5 16 -4 19 5 14 8 -5 11 -4 7 1 -5 9 -9 44 -21 174 -1 14 -7 34 -12 45
-15 32 -11 145 6 155 8 6 10 10 4 10 -10 0 -14 70 -4 70 8 0 5 44 -3 57 -4 7
-3 14 2 18 6 3 8 27 5 53 -5 59 -5 61 -4 97 1 17 -1 47 -4 67 -3 26 -1 38 7
38 8 0 7 3 -2 9 -7 5 -11 13 -7 19 3 6 2 13 -3 17 -7 3 -7 15 -1 29 5 13 6 27
3 30 -3 3 -1 12 5 19 7 8 9 16 6 20 -9 9 -12 57 -3 63 4 2 5 14 0 26 -4 12 -5
38 -1 58 4 20 3 45 0 56 -4 10 -5 24 -2 29 12 20 12 46 0 39 -7 -5 -8 -3 -2 7
13 21 14 42 3 55 -7 8 -6 14 1 19 7 4 7 12 0 26 -8 13 -7 19 0 19 6 0 8 4 5
10 -16 26 -27 187 -14 196 5 3 6 11 2 19 -3 8 0 15 6 15 6 0 8 7 4 17 -6 14
-8 79 -3 86 1 1 4 30 6 65 2 47 0 61 -9 56 -9 -5 -9 -4 0 6 9 10 9 18 1 34 -6
12 -13 40 -14 64 -2 23 -6 47 -9 52 -3 6 -2 10 3 10 5 0 9 7 9 15 0 8 -4 15
-8 15 -5 0 -5 10 0 23 5 13 5 30 0 39 -5 9 -5 19 -1 22 15 9 -11 96 -30 102
-10 3 -18 9 -18 14 0 5 -9 7 -20 5 -11 -2 -20 1 -20 7 0 7 -6 6 -15 -2 -11 -9
-15 -9 -15 -1 0 7 -5 9 -10 6 -6 -4 -44 -7 -85 -8 -41 0 -75 -4 -75 -7 0 -6
-71 -6 -77 0 -2 1 -11 3 -20 4 -10 1 -23 4 -29 8 -6 4 -16 2 -22 -4z"/>
<path d="M1390 500 c0 -5 7 -7 15 -4 8 4 15 8 15 10 0 2 -7 4 -15 4 -8 0 -15
-4 -15 -10z"/>
<path d="M1447 480 c3 -11 9 -20 15 -20 5 0 4 9 -2 20 -6 11 -12 20 -14 20 -2
0 -2 -9 1 -20z"/>
<path d="M1483 429 c-30 -11 -29 -15 5 -13 15 0 26 4 25 8 -3 13 -7 14 -30 5z"/>
<path d="M1553 365 c0 -8 4 -12 9 -9 5 3 6 10 3 15 -9 13 -12 11 -12 -6z"/>
</g>
</svg>
